# xmcd
#
# Track frame offsets: 
#        150
#        16314
#        34545
#        56872
#        81314
#        112569
#        131681
#        147686
#        183329
#        210423
#        229609
#        243718
#        258106
#
# Disc length: 3659 seconds
#
# Revision: 0
# Processed by: cddbd v1.5.2PL0 Copyright (c) Steve Scherf et al.
# Submitted via: ExactAudioCopy v0.95b3
#
DISCID=ad0e490d
DTITLE=Jethro Tull  - Rock Island (Expanded)  FLAC
DYEAR=1900
DGENRE=
TTITLE0=Kissing Willie
TTITLE1=The Rattlesnake Trail
TTITLE2=Ears Of Tin
TTITLE3=Undressed To Kill
TTITLE4=Rock Island
TTITLE5=Heavy Water
TTITLE6=Another Christmas Song
TTITLE7=The Whaler's Dues
TTITLE8=Big Riff And Mando
TTITLE9=Strange Avenues
TTITLE10=Christmas Song
TTITLE11=Cheap Day Return - Mother Goose
TTITLE12=Locomotive Breath
EXTD=
EXTT0=
EXTT1=
EXTT2=
EXTT3=
EXTT4=
EXTT5=
EXTT6=
EXTT7=
EXTT8=
EXTT9=
EXTT10=
EXTT11=
EXTT12=
PLAYORDER=
